<svg xmlns="http://www.w3.org/2000/svg" width="962" height="540" fill="none" viewBox="0 0 962 540"><g opacity=".21"><path fill="#000" fill-opacity=".1" d="M936.583 62.1011C947.606 62.1011 956.543 71.036 956.543 82.0573C945.52 82.0573 936.583 73.1224 936.583 62.1011Z"/><path fill="#DADADA" d="M813.651 53.7858C813.651 40.5937 824.347 29.8981 837.543 29.8981C837.543 43.092 826.845 53.7858 813.651 53.7858Z"/><path fill="#DADADA" d="M779.176 269.68C779.176 285.21 766.584 297.8 751.05 297.8C751.05 282.27 763.642 269.68 779.176 269.68Z"/><path fill="#000" fill-opacity=".1" d="M959.87 512.332C959.87 527.028 947.954 538.94 933.257 538.94C933.257 524.244 945.171 512.332 959.87 512.332Z"/><path fill="#000" fill-opacity=".1" d="M815.013 121.97C826.703 121.97 836.18 131.447 836.18 143.137C824.49 143.137 815.013 133.66 815.013 121.97Z"/><path fill="#DADADA" d="M847.522 33.5266C856.709 33.5266 864.154 40.9721 864.154 50.1571C854.969 50.1571 847.522 42.7115 847.522 33.5266Z"/><path fill="#DADADA" d="M844.194 23.2469C844.194 10.3876 854.62 -0.035151 867.481 -0.0351515C867.481 12.8224 857.055 23.2469 844.194 23.2469Z"/><path fill="#DADADA" d="M901.503 87.5011C917.871 87.5011 931.139 100.767 931.139 117.134C914.773 117.134 901.503 103.866 901.503 87.5011Z"/><path fill="#F0F0F0" d="M877.158 123.634C887.014 123.634 895.001 131.621 895.001 141.474C885.147 141.474 877.158 133.486 877.158 123.634Z"/><path fill="#DADADA" d="M925.394 244.431C925.394 254.45 917.271 262.574 907.25 262.574C907.25 252.554 915.373 244.431 925.394 244.431Z"/><path fill="#F0F0F0" d="M877.915 231.429C877.915 222.411 885.226 215.101 894.244 215.101C894.244 224.119 886.934 231.429 877.915 231.429Z"/><path fill="#000" fill-opacity=".1" d="M873.983 241.408C887.344 241.408 898.175 252.237 898.175 265.597C884.814 265.597 873.983 254.767 873.983 241.408Z"/><path fill="#DADADA" d="M743.793 292.659C733.939 292.659 725.95 284.673 725.95 274.819C735.804 274.819 743.793 282.806 743.793 292.659Z"/><path fill="#000" fill-opacity=".1" d="M743.49 305.359C743.49 314.877 735.772 322.594 726.253 322.594C726.253 313.076 733.971 305.359 743.49 305.359Z"/><path fill="#F0F0F0" d="M833.157 79.6381C824.805 79.6381 818.035 72.8705 818.035 64.52C826.388 64.52 833.157 71.2894 833.157 79.6381Z"/><path fill="#DADADA" d="M843.893 211.321C857.087 211.321 867.784 222.017 867.784 235.209C854.589 235.209 843.893 224.513 843.893 211.321Z"/><path fill="#DADADA" d="M802.915 427.366C802.915 435.715 796.146 442.485 787.794 442.485C787.794 434.134 794.565 427.366 802.915 427.366Z"/><path fill="#F0F0F0" d="M931.442 177.909C948.144 177.909 961.683 191.446 961.683 208.147C944.981 208.147 931.442 194.608 931.442 177.909Z"/><path fill="#DADADA" d="M938.549 231.278C938.549 222.427 945.725 215.253 954.576 215.253C954.576 224.103 947.401 231.278 938.549 231.278Z"/><path fill="#F0F0F0" d="M904.225 211.17C917.586 211.17 928.417 222.001 928.417 235.36C915.056 235.36 904.225 224.529 904.225 211.17Z"/><path fill="#000" fill-opacity=".1" d="M783.862 83.5696C783.862 70.8775 794.153 60.5886 806.847 60.5886C806.847 73.2807 796.556 83.5696 783.862 83.5696Z"/><path fill="#000" fill-opacity=".1" d="M865.212 304.603C865.212 314.957 856.818 323.349 846.464 323.349C846.464 312.997 854.858 304.603 865.212 304.603Z"/><path fill="#DADADA" d="M725.194 142.229C725.194 131.542 733.86 122.878 744.549 122.878C744.549 133.565 735.883 142.229 725.194 142.229Z"/><path fill="#DADADA" d="M932.5 176.851C932.5 161.321 945.092 148.731 960.625 148.731C960.625 164.261 948.034 176.851 932.5 176.851Z"/><path fill="#DADADA" d="M927.207 121.669C927.207 133.692 917.459 143.438 905.434 143.438C905.434 131.415 915.183 121.669 927.207 121.669Z"/><path fill="#F0F0F0" d="M787.19 19.7695C787.19 10.7517 794.502 3.44175 803.519 3.44175C803.519 12.4577 796.208 19.7695 787.19 19.7695Z"/><path fill="#DADADA" d="M817.884 170.5C817.884 161.984 824.791 155.081 833.308 155.081C833.308 163.597 826.403 170.5 817.884 170.5Z"/><path fill="#DADADA" d="M870.203 178.666C870.203 194.531 857.34 207.39 841.474 207.39C841.474 191.525 854.335 178.666 870.203 178.666Z"/><path fill="#F0F0F0" d="M841.474 148.428C857.34 148.428 870.203 161.289 870.203 177.154C854.335 177.154 841.474 164.293 841.474 148.428Z"/><path fill="#000" fill-opacity=".1" d="M743.793 353.133C733.939 353.133 725.95 345.147 725.95 335.293C735.804 335.293 743.793 343.281 743.793 353.133Z"/><path fill="#F0F0F0" d="M933.861 482.7C947.891 482.7 959.264 494.072 959.264 508.098C945.234 508.098 933.861 496.727 933.861 482.7Z"/><path fill="#000" fill-opacity=".1" d="M923.882 366.892C923.882 375.241 917.112 382.01 908.76 382.01C908.76 373.66 915.531 366.892 923.882 366.892Z"/><path fill="#DADADA" d="M745.758 234.151C733.733 234.151 723.985 224.404 723.985 212.38C736.01 212.38 745.758 222.126 745.758 234.151Z"/><path fill="#DADADA" d="M743.339 171.257C733.987 171.257 726.404 163.676 726.404 154.324C735.756 154.324 743.339 161.905 743.339 171.257Z"/><path fill="#DADADA" d="M724.288 203.61C724.288 191.921 733.765 182.444 745.455 182.444C745.455 194.134 735.978 203.61 724.288 203.61Z"/><path fill="#DADADA" d="M876.099 183.05C887.122 183.05 896.059 191.985 896.059 203.006C885.036 203.006 876.099 194.071 876.099 183.05Z"/><path fill="#DADADA" d="M930.535 178.818C930.535 194.515 917.808 207.239 902.107 207.239C902.107 191.541 914.834 178.818 930.535 178.818Z"/><path fill="#DADADA" d="M902.712 149.185C917.744 149.185 929.929 161.368 929.929 176.396C914.897 176.396 902.712 164.213 902.712 149.185Z"/><path fill="#F0F0F0" d="M928.871 301.428C928.871 315.289 917.634 326.525 903.771 326.525C903.771 312.664 915.009 301.428 928.871 301.428Z"/><path fill="#000" fill-opacity=".1" d="M877.461 305.359C886.98 305.359 894.699 313.076 894.699 322.594C885.179 322.594 877.461 314.877 877.461 305.359Z"/><path fill="#000" fill-opacity=".1" d="M783.107 144.799C783.107 131.273 794.074 120.308 807.602 120.308C807.602 133.834 796.635 144.799 783.107 144.799Z"/><path fill="#000" fill-opacity=".1" d="M773.278 154.627C773.278 163.645 765.966 170.954 756.948 170.954C756.948 161.937 764.26 154.627 773.278 154.627Z"/><path fill="#F0F0F0" d="M773.278 201.193C764.26 201.193 756.948 193.881 756.948 184.863C765.966 184.863 773.278 192.175 773.278 201.193Z"/><path fill="#DADADA" d="M925.243 426.005C925.243 435.858 917.255 443.845 907.399 443.845C907.399 433.991 915.389 426.005 925.243 426.005Z"/><path fill="#DADADA" d="M808.208 357.064C794.01 357.064 782.501 345.557 782.501 331.363C796.699 331.363 808.208 342.871 808.208 357.064Z"/><path fill="#F0F0F0" d="M930.687 540C914.818 540 901.956 527.139 901.956 511.274C917.824 511.274 930.687 524.135 930.687 540Z"/><path fill="#DADADA" d="M894.244 456.999C894.244 466.016 886.934 473.326 877.915 473.326C877.915 464.309 885.226 456.999 894.244 456.999Z"/><path fill="#000" fill-opacity=".1" d="M835.425 394.861C835.425 405.715 826.623 414.516 815.768 414.516C815.768 403.66 824.569 394.861 835.425 394.861Z"/><path fill="#DADADA" d="M803.671 413.004C794.486 413.004 787.038 405.558 787.038 396.373C796.225 396.373 803.671 403.819 803.671 413.004Z"/><path fill="#F0F0F0" d="M807.451 362.357C807.451 375.716 796.62 386.545 783.258 386.545C783.258 373.186 794.09 362.357 807.451 362.357Z"/><path fill="#000" fill-opacity=".1" d="M811.233 237.628C811.233 221.764 824.094 208.902 839.962 208.902C839.962 224.767 827.099 237.628 811.233 237.628Z"/><path fill="#000" fill-opacity=".1" d="M754.227 242.618C766.251 242.618 776 252.364 776 264.387C763.975 264.387 754.227 254.641 754.227 242.618Z"/><path fill="#DADADA" d="M780.082 208.298C780.082 224.83 766.679 238.232 750.144 238.232C750.144 221.7 763.547 208.298 780.082 208.298Z"/><path fill="#F0F0F0" d="M805.032 232.941C794.343 232.941 785.678 224.278 785.678 213.589C796.366 213.589 805.032 222.253 805.032 232.941Z"/><path fill="#DADADA" d="M843.136 84.7791C843.136 70.7507 854.509 59.3791 868.539 59.3791C868.539 73.4074 857.166 84.7791 843.136 84.7791Z"/><path fill="#DADADA" d="M846.916 93.3973C856.77 93.3973 864.76 101.383 864.76 111.237C854.906 111.237 846.916 103.25 846.916 93.3973Z"/><path fill="#000" fill-opacity=".1" d="M877.915 110.48C877.915 101.463 885.226 94.1525 894.244 94.1525C894.244 103.17 886.934 110.48 877.915 110.48Z"/><path fill="#000" fill-opacity=".1" d="M924.486 63.9146C924.486 72.9323 917.176 80.244 908.156 80.244C908.156 71.2263 915.468 63.9146 924.486 63.9146Z"/><path fill="#DADADA" d="M872.622 55.2982C872.622 40.4353 884.672 28.3876 899.536 28.3876C899.536 43.2487 887.487 55.2982 872.622 55.2982Z"/><path fill="#DADADA" d="M873.378 59.3791C887.408 59.3791 898.781 70.7507 898.781 84.7791C884.751 84.7791 873.378 73.4074 873.378 59.3791Z"/><path fill="#DADADA" d="M834.367 335.444C834.367 345.131 826.513 352.982 816.826 352.982C816.826 343.297 824.68 335.444 834.367 335.444Z"/><path fill="#000" fill-opacity=".1" d="M813.651 362.506C826.845 362.506 837.543 373.202 837.543 386.394C824.347 386.394 813.651 375.7 813.651 362.506Z"/><path fill="#F0F0F0" d="M933.105 115.772C933.105 100.91 945.155 88.8602 960.02 88.8602C960.02 103.723 947.97 115.772 933.105 115.772Z"/><path fill="#DADADA" d="M957.148 394.106C957.148 405.794 947.669 415.271 935.979 415.271C935.979 403.581 945.456 394.106 957.148 394.106Z"/><path fill="#F0F0F0" d="M938.095 426.458C947.449 426.458 955.03 434.039 955.03 443.391C945.678 443.391 938.095 435.81 938.095 426.458Z"/><path fill="#DADADA" d="M774.941 21.4316C764.086 21.4316 755.285 12.6322 755.285 1.77817C766.14 1.77817 774.941 10.5776 774.941 21.4316Z"/><path fill="#DADADA" d="M721.715 28.6886C736.247 28.6886 748.026 40.467 748.026 54.9954C733.496 54.9954 721.715 43.217 721.715 28.6886Z"/><path fill="#DADADA" d="M838.147 271.19C838.147 285.051 826.909 296.287 813.046 296.287C813.046 282.426 824.284 271.19 838.147 271.19Z"/><path fill="#DADADA" d="M814.104 242.012C826.798 242.012 837.089 252.301 837.089 264.993C824.395 264.993 814.104 254.704 814.104 242.012Z"/><path fill="#F0F0F0" d="M720.96 88.4078C736.327 88.4078 748.783 100.862 748.783 116.225C733.416 116.225 720.96 103.771 720.96 88.4078Z"/><path fill="#F0F0F0" d="M725.798 81.1505C725.798 71.131 733.923 63.0077 743.945 63.0077C743.945 73.0272 735.819 81.1505 725.798 81.1505Z"/><path fill="#DADADA" d="M751.05 116.377C751.05 100.846 763.642 88.2565 779.176 88.2565C779.176 103.787 766.584 116.377 751.05 116.377Z"/><path fill="#000" fill-opacity=".1" d="M934.012 54.3915C934.012 40.5304 945.25 29.2943 959.113 29.2943C959.113 43.1537 947.875 54.3915 934.012 54.3915Z"/><path fill="#DADADA" d="M938.398 3.44175C947.417 3.44175 954.727 10.7517 954.727 19.7695C945.71 19.7695 938.398 12.4577 938.398 3.44175Z"/><path fill="#000" fill-opacity=".1" d="M696.263 62.1011C707.286 62.1011 716.223 71.036 716.223 82.0573C705.2 82.0573 696.263 73.1224 696.263 62.1011Z"/><path fill="#DADADA" d="M573.332 53.7858C573.332 40.5937 584.027 29.8981 597.223 29.8981C597.223 43.092 586.525 53.7858 573.332 53.7858Z"/><path fill="#DADADA" d="M538.856 269.68C538.856 285.21 526.264 297.8 510.73 297.8C510.73 282.27 523.322 269.68 538.856 269.68Z"/><path fill="#000" fill-opacity=".1" d="M719.55 512.332C719.55 527.028 707.634 538.94 692.937 538.94C692.937 524.244 704.851 512.332 719.55 512.332Z"/><path fill="#000" fill-opacity=".1" d="M574.693 121.97C586.383 121.97 595.86 131.447 595.86 143.137C584.17 143.137 574.693 133.66 574.693 121.97Z"/><path fill="#DADADA" d="M607.202 33.5266C616.389 33.5266 623.834 40.9721 623.834 50.1571C614.649 50.1571 607.202 42.7115 607.202 33.5266Z"/><path fill="#DADADA" d="M603.874 23.2469C603.874 10.3876 614.3 -0.035151 627.162 -0.0351515C627.162 12.8224 616.735 23.2469 603.874 23.2469Z"/><path fill="#DADADA" d="M661.183 87.5011C677.551 87.5011 690.819 100.767 690.819 117.134C674.453 117.134 661.183 103.866 661.183 87.5011Z"/><path fill="#F0F0F0" d="M636.838 123.634C646.694 123.634 654.681 131.621 654.681 141.474C644.827 141.474 636.838 133.486 636.838 123.634Z"/><path fill="#DADADA" d="M685.074 244.431C685.074 254.45 676.951 262.574 666.93 262.574C666.93 252.554 675.053 244.431 685.074 244.431Z"/><path fill="#F0F0F0" d="M637.595 231.429C637.595 222.411 644.906 215.101 653.924 215.101C653.924 224.119 646.614 231.429 637.595 231.429Z"/><path fill="#000" fill-opacity=".1" d="M633.663 241.408C647.024 241.408 657.856 252.237 657.856 265.597C644.494 265.597 633.663 254.767 633.663 241.408Z"/><path fill="#DADADA" d="M503.473 292.659C493.619 292.659 485.63 284.673 485.63 274.819C495.484 274.819 503.473 282.806 503.473 292.659Z"/><path fill="#000" fill-opacity=".1" d="M503.17 305.359C503.17 314.877 495.452 322.594 485.933 322.594C485.933 313.076 493.651 305.359 503.17 305.359Z"/><path fill="#F0F0F0" d="M592.837 79.6381C584.485 79.6381 577.716 72.8705 577.716 64.52C586.068 64.52 592.837 71.2894 592.837 79.6381Z"/><path fill="#DADADA" d="M603.573 211.321C616.767 211.321 627.464 222.017 627.464 235.209C614.269 235.209 603.573 224.513 603.573 211.321Z"/><path fill="#DADADA" d="M562.595 427.366C562.595 435.715 555.826 442.485 547.474 442.485C547.474 434.134 554.245 427.366 562.595 427.366Z"/><path fill="#F0F0F0" d="M691.122 177.909C707.825 177.909 721.363 191.446 721.363 208.147C704.661 208.147 691.122 194.608 691.122 177.909Z"/><path fill="#DADADA" d="M698.229 231.278C698.229 222.427 705.405 215.253 714.256 215.253C714.256 224.103 707.081 231.278 698.229 231.278Z"/><path fill="#F0F0F0" d="M663.905 211.17C677.266 211.17 688.097 222.001 688.097 235.36C674.736 235.36 663.905 224.529 663.905 211.17Z"/><path fill="#000" fill-opacity=".1" d="M543.542 83.5696C543.542 70.8775 553.833 60.5886 566.527 60.5886C566.527 73.2807 556.236 83.5696 543.542 83.5696Z"/><path fill="#000" fill-opacity=".1" d="M624.892 304.603C624.892 314.957 616.498 323.349 606.144 323.349C606.144 312.997 614.538 304.603 624.892 304.603Z"/><path fill="#DADADA" d="M484.874 142.229C484.874 131.542 493.54 122.878 504.229 122.878C504.229 133.565 495.563 142.229 484.874 142.229Z"/><path fill="#DADADA" d="M692.18 176.851C692.18 161.321 704.772 148.731 720.305 148.731C720.305 164.261 707.714 176.851 692.18 176.851Z"/><path fill="#DADADA" d="M686.888 121.669C686.888 133.692 677.139 143.438 665.114 143.438C665.114 131.415 674.863 121.669 686.888 121.669Z"/><path fill="#F0F0F0" d="M546.87 19.7695C546.87 10.7517 554.182 3.44175 563.199 3.44175C563.199 12.4577 555.888 19.7695 546.87 19.7695Z"/><path fill="#DADADA" d="M577.564 170.5C577.564 161.984 584.471 155.081 592.989 155.081C592.989 163.597 586.084 170.5 577.564 170.5Z"/><path fill="#DADADA" d="M629.883 178.666C629.883 194.531 617.02 207.39 601.154 207.39C601.154 191.525 614.015 178.666 629.883 178.666Z"/><path fill="#F0F0F0" d="M601.154 148.428C617.02 148.428 629.883 161.289 629.883 177.154C614.015 177.154 601.154 164.293 601.154 148.428Z"/><path fill="#000" fill-opacity=".1" d="M503.473 353.133C493.619 353.133 485.63 345.147 485.63 335.293C495.484 335.293 503.473 343.281 503.473 353.133Z"/><path fill="#F0F0F0" d="M693.541 482.7C707.571 482.7 718.944 494.072 718.944 508.098C704.914 508.098 693.541 496.727 693.541 482.7Z"/><path fill="#000" fill-opacity=".1" d="M683.562 366.892C683.562 375.241 676.792 382.01 668.44 382.01C668.44 373.66 675.211 366.892 683.562 366.892Z"/><path fill="#DADADA" d="M505.438 234.151C493.413 234.151 483.665 224.404 483.665 212.38C495.69 212.38 505.438 222.126 505.438 234.151Z"/><path fill="#DADADA" d="M503.019 171.257C493.667 171.257 486.084 163.676 486.084 154.324C495.436 154.324 503.019 161.905 503.019 171.257Z"/><path fill="#DADADA" d="M483.968 203.61C483.968 191.921 493.445 182.444 505.135 182.444C505.135 194.134 495.658 203.61 483.968 203.61Z"/><path fill="#DADADA" d="M635.78 183.05C646.803 183.05 655.739 191.985 655.739 203.006C644.716 203.006 635.78 194.071 635.78 183.05Z"/><path fill="#DADADA" d="M690.215 178.818C690.215 194.515 677.488 207.239 661.787 207.239C661.787 191.541 674.514 178.818 690.215 178.818Z"/><path fill="#DADADA" d="M662.392 149.185C677.424 149.185 689.609 161.368 689.609 176.396C674.577 176.396 662.392 164.213 662.392 149.185Z"/><path fill="#F0F0F0" d="M688.551 301.428C688.551 315.289 677.314 326.525 663.451 326.525C663.451 312.664 674.689 301.428 688.551 301.428Z"/><path fill="#000" fill-opacity=".1" d="M637.141 305.359C646.66 305.359 654.379 313.076 654.379 322.594C644.859 322.594 637.141 314.877 637.141 305.359Z"/><path fill="#000" fill-opacity=".1" d="M542.787 144.799C542.787 131.273 553.754 120.308 567.282 120.308C567.282 133.834 556.316 144.799 542.787 144.799Z"/><path fill="#000" fill-opacity=".1" d="M532.958 154.627C532.958 163.645 525.646 170.954 516.628 170.954C516.628 161.937 523.94 154.627 532.958 154.627Z"/><path fill="#F0F0F0" d="M532.958 201.193C523.94 201.193 516.628 193.881 516.628 184.863C525.646 184.863 532.958 192.175 532.958 201.193Z"/><path fill="#DADADA" d="M684.923 426.005C684.923 435.858 676.935 443.845 667.079 443.845C667.079 433.991 675.069 426.005 684.923 426.005Z"/><path fill="#DADADA" d="M567.888 357.064C553.69 357.064 542.182 345.557 542.182 331.363C556.379 331.363 567.888 342.871 567.888 357.064Z"/><path fill="#F0F0F0" d="M690.367 540C674.498 540 661.636 527.139 661.636 511.274C677.504 511.274 690.367 524.135 690.367 540Z"/><path fill="#DADADA" d="M653.924 456.999C653.924 466.016 646.614 473.326 637.595 473.326C637.595 464.309 644.906 456.999 653.924 456.999Z"/><path fill="#000" fill-opacity=".1" d="M595.105 394.861C595.105 405.715 586.303 414.516 575.448 414.516C575.448 403.66 584.249 394.861 595.105 394.861Z"/><path fill="#DADADA" d="M563.351 413.004C554.166 413.004 546.719 405.558 546.719 396.373C555.905 396.373 563.351 403.819 563.351 413.004Z"/><path fill="#F0F0F0" d="M567.131 362.357C567.131 375.716 556.3 386.545 542.938 386.545C542.938 373.186 553.77 362.357 567.131 362.357Z"/><path fill="#000" fill-opacity=".1" d="M570.913 237.628C570.913 221.764 583.774 208.902 599.642 208.902C599.642 224.767 586.779 237.628 570.913 237.628Z"/><path fill="#000" fill-opacity=".1" d="M513.907 242.618C525.931 242.618 535.68 252.364 535.68 264.387C523.655 264.387 513.907 254.641 513.907 242.618Z"/><path fill="#DADADA" d="M539.762 208.298C539.762 224.83 526.359 238.232 509.824 238.232C509.824 221.7 523.227 208.298 539.762 208.298Z"/><path fill="#F0F0F0" d="M564.712 232.941C554.023 232.941 545.358 224.278 545.358 213.589C556.046 213.589 564.712 222.253 564.712 232.941Z"/><path fill="#DADADA" d="M602.816 84.7791C602.816 70.7507 614.19 59.3791 628.22 59.3791C628.22 73.4074 616.846 84.7791 602.816 84.7791Z"/><path fill="#DADADA" d="M606.596 93.3973C616.45 93.3973 624.44 101.383 624.44 111.237C614.586 111.237 606.596 103.25 606.596 93.3973Z"/><path fill="#000" fill-opacity=".1" d="M637.595 110.48C637.595 101.463 644.906 94.1525 653.924 94.1525C653.924 103.17 646.614 110.48 637.595 110.48Z"/><path fill="#000" fill-opacity=".1" d="M684.166 63.9146C684.166 72.9323 676.856 80.244 667.836 80.244C667.836 71.2263 675.148 63.9146 684.166 63.9146Z"/><path fill="#DADADA" d="M632.302 55.2982C632.302 40.4353 644.352 28.3876 659.216 28.3876C659.216 43.2487 647.167 55.2982 632.302 55.2982Z"/><path fill="#DADADA" d="M633.058 59.3791C647.088 59.3791 658.461 70.7507 658.461 84.7791C644.431 84.7791 633.058 73.4074 633.058 59.3791Z"/><path fill="#DADADA" d="M594.047 335.444C594.047 345.131 586.193 352.982 576.506 352.982C576.506 343.297 584.36 335.444 594.047 335.444Z"/><path fill="#000" fill-opacity=".1" d="M573.332 362.506C586.525 362.506 597.223 373.202 597.223 386.394C584.027 386.394 573.332 375.7 573.332 362.506Z"/><path fill="#F0F0F0" d="M692.786 115.772C692.786 100.91 704.835 88.8602 719.7 88.8602C719.7 103.723 707.65 115.772 692.786 115.772Z"/><path fill="#DADADA" d="M716.828 394.106C716.828 405.794 707.349 415.271 695.659 415.271C695.659 403.581 705.136 394.106 716.828 394.106Z"/><path fill="#F0F0F0" d="M697.775 426.458C707.129 426.458 714.71 434.039 714.71 443.391C705.358 443.391 697.775 435.81 697.775 426.458Z"/><path fill="#DADADA" d="M534.621 21.4316C523.766 21.4316 514.965 12.6322 514.965 1.77817C525.82 1.77817 534.621 10.5776 534.621 21.4316Z"/><path fill="#DADADA" d="M481.396 28.6886C495.927 28.6886 507.706 40.467 507.706 54.9954C493.176 54.9954 481.396 43.217 481.396 28.6886Z"/><path fill="#DADADA" d="M597.827 271.19C597.827 285.051 586.589 296.287 572.726 296.287C572.726 282.426 583.964 271.19 597.827 271.19Z"/><path fill="#DADADA" d="M573.784 242.012C586.478 242.012 596.769 252.301 596.769 264.993C584.075 264.993 573.784 254.704 573.784 242.012Z"/><path fill="#F0F0F0" d="M480.64 88.4078C496.007 88.4078 508.463 100.862 508.463 116.225C493.096 116.225 480.64 103.771 480.64 88.4078Z"/><path fill="#F0F0F0" d="M485.478 81.1505C485.478 71.131 493.603 63.0077 503.625 63.0077C503.625 73.0272 495.499 81.1505 485.478 81.1505Z"/><path fill="#DADADA" d="M510.73 116.377C510.73 100.846 523.322 88.2565 538.856 88.2565C538.856 103.787 526.264 116.377 510.73 116.377Z"/><path fill="#000" fill-opacity=".1" d="M693.692 54.3915C693.692 40.5304 704.93 29.2943 718.793 29.2943C718.793 43.1537 707.555 54.3915 693.692 54.3915Z"/><path fill="#DADADA" d="M698.078 3.44175C707.098 3.44175 714.408 10.7517 714.408 19.7695C705.39 19.7695 698.078 12.4577 698.078 3.44175Z"/><path fill="#000" fill-opacity=".1" d="M455.943 62.1011C466.966 62.1011 475.903 71.036 475.903 82.0573C464.88 82.0573 455.943 73.1224 455.943 62.1011Z"/><path fill="#DADADA" d="M333.011 53.7858C333.011 40.5937 343.707 29.8981 356.903 29.8981C356.903 43.092 346.205 53.7858 333.011 53.7858Z"/><path fill="#DADADA" d="M298.536 269.68C298.536 285.21 285.944 297.8 270.41 297.8C270.41 282.27 283.002 269.68 298.536 269.68Z"/><path fill="#000" fill-opacity=".1" d="M479.23 512.332C479.23 527.028 467.314 538.94 452.617 538.94C452.617 524.244 464.531 512.332 479.23 512.332Z"/><path fill="#000" fill-opacity=".1" d="M334.372 121.97C346.063 121.97 355.54 131.447 355.54 143.137C343.85 143.137 334.372 133.66 334.372 121.97Z"/><path fill="#DADADA" d="M366.882 33.5266C376.068 33.5266 383.514 40.9721 383.514 50.1571C374.329 50.1571 366.882 42.7115 366.882 33.5266Z"/><path fill="#DADADA" d="M363.554 23.2469C363.554 10.3876 373.98 -0.035151 386.841 -0.0351515C386.841 12.8224 376.415 23.2469 363.554 23.2469Z"/><path fill="#DADADA" d="M420.863 87.5011C437.231 87.5011 450.499 100.767 450.499 117.134C434.132 117.134 420.863 103.866 420.863 87.5011Z"/><path fill="#F0F0F0" d="M396.518 123.634C406.373 123.634 414.361 131.621 414.361 141.474C404.507 141.474 396.518 133.486 396.518 123.634Z"/><path fill="#DADADA" d="M444.754 244.431C444.754 254.45 436.631 262.574 426.609 262.574C426.609 252.554 434.733 244.431 444.754 244.431Z"/><path fill="#F0F0F0" d="M397.275 231.429C397.275 222.411 404.586 215.101 413.604 215.101C413.604 224.119 406.294 231.429 397.275 231.429Z"/><path fill="#000" fill-opacity=".1" d="M393.343 241.408C406.704 241.408 417.535 252.237 417.535 265.597C404.174 265.597 393.343 254.767 393.343 241.408Z"/><path fill="#DADADA" d="M263.153 292.659C253.299 292.659 245.31 284.673 245.31 274.819C255.164 274.819 263.153 282.806 263.153 292.659Z"/><path fill="#000" fill-opacity=".1" d="M262.85 305.359C262.85 314.877 255.132 322.594 245.612 322.594C245.612 313.076 253.331 305.359 262.85 305.359Z"/><path fill="#F0F0F0" d="M352.517 79.6381C344.165 79.6381 337.395 72.8705 337.395 64.52C345.748 64.52 352.517 71.2894 352.517 79.6381Z"/><path fill="#DADADA" d="M363.253 211.321C376.447 211.321 387.144 222.017 387.144 235.209C373.949 235.209 363.253 224.513 363.253 211.321Z"/><path fill="#DADADA" d="M322.275 427.366C322.275 435.715 315.506 442.485 307.154 442.485C307.154 434.134 313.925 427.366 322.275 427.366Z"/><path fill="#F0F0F0" d="M450.802 177.909C467.504 177.909 481.043 191.446 481.043 208.147C464.341 208.147 450.802 194.608 450.802 177.909Z"/><path fill="#DADADA" d="M457.909 231.278C457.909 222.427 465.085 215.253 473.936 215.253C473.936 224.103 466.761 231.278 457.909 231.278Z"/><path fill="#F0F0F0" d="M423.585 211.17C436.946 211.17 447.777 222.001 447.777 235.36C434.416 235.36 423.585 224.529 423.585 211.17Z"/><path fill="#000" fill-opacity=".1" d="M303.222 83.5696C303.222 70.8775 313.513 60.5886 326.207 60.5886C326.207 73.2807 315.916 83.5696 303.222 83.5696Z"/><path fill="#000" fill-opacity=".1" d="M384.572 304.603C384.572 314.957 376.177 323.349 365.823 323.349C365.823 312.997 374.218 304.603 384.572 304.603Z"/><path fill="#DADADA" d="M244.554 142.229C244.554 131.542 253.22 122.878 263.908 122.878C263.908 133.565 255.243 142.229 244.554 142.229Z"/><path fill="#DADADA" d="M451.86 176.851C451.86 161.321 464.452 148.731 479.985 148.731C479.985 164.261 467.394 176.851 451.86 176.851Z"/><path fill="#DADADA" d="M446.568 121.669C446.568 133.692 436.819 143.438 424.794 143.438C424.794 131.415 434.543 121.669 446.568 121.669Z"/><path fill="#F0F0F0" d="M306.55 19.7695C306.55 10.7517 313.862 3.44175 322.879 3.44175C322.879 12.4577 315.568 19.7695 306.55 19.7695Z"/><path fill="#DADADA" d="M337.244 170.5C337.244 161.984 344.151 155.081 352.669 155.081C352.669 163.597 345.764 170.5 337.244 170.5Z"/><path fill="#DADADA" d="M389.563 178.666C389.563 194.531 376.7 207.39 360.834 207.39C360.834 191.525 373.695 178.666 389.563 178.666Z"/><path fill="#F0F0F0" d="M360.834 148.428C376.7 148.428 389.563 161.289 389.563 177.154C373.695 177.154 360.834 164.293 360.834 148.428Z"/><path fill="#000" fill-opacity=".1" d="M263.153 353.133C253.299 353.133 245.31 345.147 245.31 335.293C255.164 335.293 263.153 343.281 263.153 353.133Z"/><path fill="#F0F0F0" d="M453.221 482.7C467.251 482.7 478.624 494.072 478.624 508.098C464.594 508.098 453.221 496.727 453.221 482.7Z"/><path fill="#000" fill-opacity=".1" d="M443.242 366.892C443.242 375.241 436.472 382.01 428.12 382.01C428.12 373.66 434.891 366.892 443.242 366.892Z"/><path fill="#DADADA" d="M265.118 234.151C253.093 234.151 243.345 224.404 243.345 212.38C255.37 212.38 265.118 222.126 265.118 234.151Z"/><path fill="#DADADA" d="M262.699 171.257C253.347 171.257 245.764 163.676 245.764 154.324C255.116 154.324 262.699 161.905 262.699 171.257Z"/><path fill="#DADADA" d="M243.648 203.61C243.648 191.921 253.125 182.444 264.815 182.444C264.815 194.134 255.338 203.61 243.648 203.61Z"/><path fill="#DADADA" d="M395.459 183.05C406.482 183.05 415.419 191.985 415.419 203.006C404.396 203.006 395.459 194.071 395.459 183.05Z"/><path fill="#DADADA" d="M449.895 178.818C449.895 194.515 437.168 207.239 421.467 207.239C421.467 191.541 434.194 178.818 449.895 178.818Z"/><path fill="#DADADA" d="M422.072 149.185C437.104 149.185 449.289 161.368 449.289 176.396C434.257 176.396 422.072 164.213 422.072 149.185Z"/><path fill="#F0F0F0" d="M448.231 301.428C448.231 315.289 436.994 326.525 423.131 326.525C423.131 312.664 434.368 301.428 448.231 301.428Z"/><path fill="#000" fill-opacity=".1" d="M396.82 305.359C406.34 305.359 414.058 313.076 414.058 322.594C404.539 322.594 396.82 314.877 396.82 305.359Z"/><path fill="#000" fill-opacity=".1" d="M302.467 144.799C302.467 131.273 313.434 120.308 326.962 120.308C326.962 133.834 315.995 144.799 302.467 144.799Z"/><path fill="#000" fill-opacity=".1" d="M292.638 154.627C292.638 163.645 285.326 170.954 276.308 170.954C276.308 161.937 283.62 154.627 292.638 154.627Z"/><path fill="#F0F0F0" d="M292.638 201.193C283.62 201.193 276.308 193.881 276.308 184.863C285.326 184.863 292.638 192.175 292.638 201.193Z"/><path fill="#DADADA" d="M444.603 426.005C444.603 435.858 436.615 443.845 426.759 443.845C426.759 433.991 434.749 426.005 444.603 426.005Z"/><path fill="#DADADA" d="M327.568 357.064C313.37 357.064 301.861 345.557 301.861 331.363C316.059 331.363 327.568 342.871 327.568 357.064Z"/><path fill="#F0F0F0" d="M450.046 540C434.178 540 421.315 527.139 421.315 511.274C437.184 511.274 450.046 524.135 450.046 540Z"/><path fill="#DADADA" d="M413.604 456.999C413.604 466.016 406.294 473.326 397.275 473.326C397.275 464.309 404.586 456.999 413.604 456.999Z"/><path fill="#000" fill-opacity=".1" d="M354.784 394.861C354.784 405.715 345.983 414.516 335.128 414.516C335.128 403.66 343.929 394.861 354.784 394.861Z"/><path fill="#DADADA" d="M323.031 413.004C313.846 413.004 306.398 405.558 306.398 396.373C315.585 396.373 323.031 403.819 323.031 413.004Z"/><path fill="#F0F0F0" d="M326.811 362.357C326.811 375.716 315.979 386.545 302.618 386.545C302.618 373.186 313.449 362.357 326.811 362.357Z"/><path fill="#000" fill-opacity=".1" d="M330.592 237.628C330.592 221.764 343.454 208.902 359.322 208.902C359.322 224.767 346.459 237.628 330.592 237.628Z"/><path fill="#000" fill-opacity=".1" d="M273.586 242.618C285.611 242.618 295.36 252.364 295.36 264.387C283.335 264.387 273.586 254.641 273.586 242.618Z"/><path fill="#DADADA" d="M299.442 208.298C299.442 224.83 286.039 238.232 269.503 238.232C269.503 221.7 282.907 208.298 299.442 208.298Z"/><path fill="#F0F0F0" d="M324.392 232.941C313.703 232.941 305.037 224.278 305.037 213.589C315.726 213.589 324.392 222.253 324.392 232.941Z"/><path fill="#DADADA" d="M362.496 84.7791C362.496 70.7507 373.869 59.3791 387.9 59.3791C387.9 73.4074 376.526 84.7791 362.496 84.7791Z"/><path fill="#DADADA" d="M366.276 93.3973C376.13 93.3973 384.119 101.383 384.119 111.237C374.265 111.237 366.276 103.25 366.276 93.3973Z"/><path fill="#000" fill-opacity=".1" d="M397.275 110.48C397.275 101.463 404.586 94.1525 413.604 94.1525C413.604 103.17 406.294 110.48 397.275 110.48Z"/><path fill="#000" fill-opacity=".1" d="M443.846 63.9146C443.846 72.9323 436.536 80.244 427.516 80.244C427.516 71.2263 434.828 63.9146 443.846 63.9146Z"/><path fill="#DADADA" d="M391.982 55.2982C391.982 40.4353 404.032 28.3876 418.896 28.3876C418.896 43.2487 406.847 55.2982 391.982 55.2982Z"/><path fill="#DADADA" d="M392.738 59.3791C406.768 59.3791 418.141 70.7507 418.141 84.7791C404.111 84.7791 392.738 73.4074 392.738 59.3791Z"/><path fill="#DADADA" d="M353.726 335.444C353.726 345.131 345.873 352.982 336.186 352.982C336.186 343.297 344.04 335.444 353.726 335.444Z"/><path fill="#000" fill-opacity=".1" d="M333.011 362.506C346.205 362.506 356.903 373.202 356.903 386.394C343.707 386.394 333.011 375.7 333.011 362.506Z"/><path fill="#F0F0F0" d="M452.465 115.772C452.465 100.91 464.515 88.8602 479.38 88.8602C479.38 103.723 467.33 115.772 452.465 115.772Z"/><path fill="#DADADA" d="M476.508 394.106C476.508 405.794 467.029 415.271 455.339 415.271C455.339 403.581 464.816 394.106 476.508 394.106Z"/><path fill="#F0F0F0" d="M457.455 426.458C466.809 426.458 474.39 434.039 474.39 443.391C465.038 443.391 457.455 435.81 457.455 426.458Z"/><path fill="#DADADA" d="M294.301 21.4316C283.446 21.4316 274.644 12.6322 274.644 1.77817C285.5 1.77817 294.301 10.5776 294.301 21.4316Z"/><path fill="#DADADA" d="M241.075 28.6886C255.607 28.6886 267.386 40.467 267.386 54.9954C252.855 54.9954 241.075 43.217 241.075 28.6886Z"/><path fill="#DADADA" d="M357.506 271.19C357.506 285.051 346.269 296.287 332.406 296.287C332.406 282.426 343.644 271.19 357.506 271.19Z"/><path fill="#DADADA" d="M333.464 242.012C346.158 242.012 356.448 252.301 356.448 264.993C343.755 264.993 333.464 254.704 333.464 242.012Z"/><path fill="#F0F0F0" d="M240.32 88.4078C255.687 88.4078 268.143 100.862 268.143 116.225C252.776 116.225 240.32 103.771 240.32 88.4078Z"/><path fill="#F0F0F0" d="M245.158 81.1505C245.158 71.131 253.283 63.0077 263.304 63.0077C263.304 73.0272 255.179 81.1505 245.158 81.1505Z"/><path fill="#DADADA" d="M270.41 116.377C270.41 100.846 283.002 88.2565 298.536 88.2565C298.536 103.787 285.944 116.377 270.41 116.377Z"/><path fill="#000" fill-opacity=".1" d="M453.372 54.3915C453.372 40.5304 464.61 29.2943 478.473 29.2943C478.473 43.1537 467.235 54.3915 453.372 54.3915Z"/><path fill="#DADADA" d="M457.758 3.44175C466.777 3.44175 474.087 10.7517 474.087 19.7695C465.069 19.7695 457.758 12.4577 457.758 3.44175Z"/><path fill="#000" fill-opacity=".1" d="M215.622 62.1011C226.646 62.1011 235.582 71.036 235.582 82.0573C224.559 82.0573 215.622 73.1224 215.622 62.1011Z"/><path fill="#DADADA" d="M92.6913 53.7858C92.6913 40.5937 103.387 29.8981 116.582 29.8981C116.582 43.092 105.885 53.7858 92.6913 53.7858Z"/><path fill="#DADADA" d="M58.2156 269.68C58.2156 285.21 45.6239 297.8 30.0902 297.8C30.0902 282.27 42.6819 269.68 58.2156 269.68Z"/><path fill="#000" fill-opacity=".1" d="M238.91 512.332C238.91 527.028 226.994 538.94 212.297 538.94C212.297 524.244 224.211 512.332 238.91 512.332Z"/><path fill="#000" fill-opacity=".1" d="M94.0522 121.97C105.743 121.97 115.22 131.447 115.22 143.137C103.529 143.137 94.0522 133.66 94.0522 121.97Z"/><path fill="#DADADA" d="M126.562 33.5266C135.748 33.5266 143.194 40.9721 143.194 50.1571C134.009 50.1571 126.562 42.7115 126.562 33.5266Z"/><path fill="#DADADA" d="M123.234 23.2469C123.234 10.3876 133.66 -0.035151 146.521 -0.0351515C146.521 12.8224 136.095 23.2469 123.234 23.2469Z"/><path fill="#DADADA" d="M180.543 87.5011C196.911 87.5011 210.179 100.767 210.179 117.134C193.812 117.134 180.543 103.866 180.543 87.5011Z"/><path fill="#F0F0F0" d="M156.197 123.634C166.053 123.634 174.041 131.621 174.041 141.474C164.187 141.474 156.197 133.486 156.197 123.634Z"/><path fill="#DADADA" d="M204.434 244.431C204.434 254.45 196.311 262.574 186.289 262.574C186.289 252.554 194.413 244.431 204.434 244.431Z"/><path fill="#F0F0F0" d="M156.954 231.429C156.954 222.411 164.266 215.101 173.284 215.101C173.284 224.119 165.974 231.429 156.954 231.429Z"/><path fill="#000" fill-opacity=".1" d="M153.023 241.408C166.384 241.408 177.215 252.237 177.215 265.597C163.854 265.597 153.023 254.767 153.023 241.408Z"/><path fill="#DADADA" d="M22.8331 292.659C12.9791 292.659 4.98953 284.673 4.98953 274.819C14.8435 274.819 22.8331 282.806 22.8331 292.659Z"/><path fill="#000" fill-opacity=".1" d="M22.5302 305.359C22.5302 314.877 14.8118 322.594 5.29227 322.594C5.29227 313.076 13.0107 305.359 22.5302 305.359Z"/><path fill="#F0F0F0" d="M112.197 79.6381C103.845 79.6381 97.0751 72.8705 97.0751 64.52C105.427 64.52 112.197 71.2894 112.197 79.6381Z"/><path fill="#DADADA" d="M122.933 211.321C136.127 211.321 146.824 222.017 146.824 235.209C133.628 235.209 122.933 224.513 122.933 211.321Z"/><path fill="#DADADA" d="M81.9552 427.366C81.9552 435.715 75.1857 442.485 66.8335 442.485C66.8335 434.134 73.6047 427.366 81.9552 427.366Z"/><path fill="#F0F0F0" d="M210.482 177.909C227.184 177.909 240.723 191.446 240.723 208.147C224.02 208.147 210.482 194.608 210.482 177.909Z"/><path fill="#DADADA" d="M217.589 231.278C217.589 222.427 224.765 215.253 233.616 215.253C233.616 224.103 226.441 231.278 217.589 231.278Z"/><path fill="#F0F0F0" d="M183.265 211.17C196.626 211.17 207.457 222.001 207.457 235.36C194.096 235.36 183.265 224.529 183.265 211.17Z"/><path fill="#000" fill-opacity=".1" d="M62.9022 83.5696C62.9022 70.8775 73.1929 60.5886 85.8867 60.5886C85.8867 73.2807 75.5961 83.5696 62.9022 83.5696Z"/><path fill="#000" fill-opacity=".1" d="M144.252 304.603C144.252 314.957 135.857 323.349 125.503 323.349C125.503 312.997 133.898 304.603 144.252 304.603Z"/><path fill="#DADADA" d="M4.2342 142.229C4.2342 131.542 12.8998 122.878 23.5883 122.878C23.5883 133.565 14.9227 142.229 4.2342 142.229Z"/><path fill="#DADADA" d="M211.54 176.851C211.54 161.321 224.131 148.731 239.665 148.731C239.665 164.261 227.073 176.851 211.54 176.851Z"/><path fill="#DADADA" d="M206.247 121.669C206.247 133.692 196.499 143.438 184.474 143.438C184.474 131.415 194.223 121.669 206.247 121.669Z"/><path fill="#F0F0F0" d="M66.2297 19.7695C66.2297 10.7517 73.5414 3.44175 82.5591 3.44175C82.5591 12.4577 75.2474 19.7695 66.2297 19.7695Z"/><path fill="#DADADA" d="M96.9238 170.5C96.9238 161.984 103.831 155.081 112.348 155.081C112.348 163.597 105.443 170.5 96.9238 170.5Z"/><path fill="#DADADA" d="M149.243 178.666C149.243 194.531 136.38 207.39 120.514 207.39C120.514 191.525 133.375 178.666 149.243 178.666Z"/><path fill="#F0F0F0" d="M120.514 148.428C136.38 148.428 149.243 161.289 149.243 177.154C133.375 177.154 120.514 164.293 120.514 148.428Z"/><path fill="#000" fill-opacity=".1" d="M22.8331 353.133C12.9791 353.133 4.98953 345.147 4.98953 335.293C14.8435 335.293 22.8331 343.281 22.8331 353.133Z"/><path fill="#F0F0F0" d="M212.901 482.7C226.931 482.7 238.304 494.072 238.304 508.098C224.274 508.098 212.901 496.727 212.901 482.7Z"/><path fill="#000" fill-opacity=".1" d="M202.922 366.892C202.922 375.241 196.152 382.01 187.8 382.01C187.8 373.66 194.571 366.892 202.922 366.892Z"/><path fill="#DADADA" d="M24.7978 234.151C12.773 234.151 3.02463 224.404 3.02463 212.38C15.0494 212.38 24.7978 222.126 24.7978 234.151Z"/><path fill="#DADADA" d="M22.3788 171.257C13.0266 171.257 5.44376 163.676 5.44376 154.324C14.796 154.324 22.3788 161.905 22.3788 171.257Z"/><path fill="#DADADA" d="M3.32753 203.61C3.32753 191.921 12.8048 182.444 24.4951 182.444C24.4951 194.134 15.0178 203.61 3.32753 203.61Z"/><path fill="#DADADA" d="M155.139 183.05C166.162 183.05 175.099 191.985 175.099 203.006C164.076 203.006 155.139 194.071 155.139 183.05Z"/><path fill="#DADADA" d="M209.575 178.818C209.575 194.515 196.848 207.239 181.147 207.239C181.147 191.541 193.874 178.818 209.575 178.818Z"/><path fill="#DADADA" d="M181.752 149.185C196.784 149.185 208.969 161.368 208.969 176.396C193.937 176.396 181.752 164.213 181.752 149.185Z"/><path fill="#F0F0F0" d="M207.911 301.428C207.911 315.289 196.673 326.525 182.81 326.525C182.81 312.664 194.048 301.428 207.911 301.428Z"/><path fill="#000" fill-opacity=".1" d="M156.5 305.359C166.02 305.359 173.738 313.076 173.738 322.594C164.219 322.594 156.5 314.877 156.5 305.359Z"/><path fill="#000" fill-opacity=".1" d="M62.1469 144.799C62.1469 131.273 73.1136 120.308 86.6419 120.308C86.6419 133.834 75.6753 144.799 62.1469 144.799Z"/><path fill="#000" fill-opacity=".1" d="M52.3175 154.627C52.3175 163.645 45.0058 170.954 35.9881 170.954C35.9881 161.937 43.2998 154.627 52.3175 154.627Z"/><path fill="#F0F0F0" d="M52.3175 201.193C43.2998 201.193 35.9881 193.881 35.9881 184.863C45.0058 184.863 52.3175 192.175 52.3175 201.193Z"/><path fill="#DADADA" d="M204.283 426.005C204.283 435.858 196.295 443.845 186.439 443.845C186.439 433.991 194.429 426.005 204.283 426.005Z"/><path fill="#DADADA" d="M87.2476 357.064C73.0502 357.064 61.5413 345.557 61.5413 331.363C75.7386 331.363 87.2476 342.871 87.2476 357.064Z"/><path fill="#F0F0F0" d="M209.726 540C193.858 540 180.995 527.139 180.995 511.274C196.864 511.274 209.726 524.135 209.726 540Z"/><path fill="#DADADA" d="M173.284 456.999C173.284 466.016 165.974 473.326 156.954 473.326C156.954 464.309 164.266 456.999 173.284 456.999Z"/><path fill="#000" fill-opacity=".1" d="M114.464 394.861C114.464 405.715 105.663 414.516 94.8075 414.516C94.8075 403.66 103.609 394.861 114.464 394.861Z"/><path fill="#DADADA" d="M82.7105 413.004C73.5256 413.004 66.0783 405.558 66.0783 396.373C75.265 396.373 82.7105 403.819 82.7105 413.004Z"/><path fill="#F0F0F0" d="M86.4905 362.357C86.4905 375.716 75.6594 386.545 62.2983 386.545C62.2983 373.186 73.1294 362.357 86.4905 362.357Z"/><path fill="#000" fill-opacity=".1" d="M90.2723 237.628C90.2723 221.764 103.133 208.902 119.002 208.902C119.002 224.767 106.139 237.628 90.2723 237.628Z"/><path fill="#000" fill-opacity=".1" d="M33.2662 242.618C45.291 242.618 55.0394 252.364 55.0394 264.387C43.0146 264.387 33.2662 254.641 33.2662 242.618Z"/><path fill="#DADADA" d="M59.1222 208.298C59.1222 224.83 45.7189 238.232 29.1835 238.232C29.1835 221.7 42.5868 208.298 59.1222 208.298Z"/><path fill="#F0F0F0" d="M84.0714 232.941C73.3829 232.941 64.7173 224.278 64.7173 213.589C75.4058 213.589 84.0714 222.253 84.0714 232.941Z"/><path fill="#DADADA" d="M122.176 84.7791C122.176 70.7507 133.549 59.3791 147.579 59.3791C147.579 73.4074 136.206 84.7791 122.176 84.7791Z"/><path fill="#DADADA" d="M125.956 93.3973C135.81 93.3973 143.799 101.383 143.799 111.237C133.945 111.237 125.956 103.25 125.956 93.3973Z"/><path fill="#000" fill-opacity=".1" d="M156.954 110.48C156.954 101.463 164.266 94.1525 173.284 94.1525C173.284 103.17 165.974 110.48 156.954 110.48Z"/><path fill="#000" fill-opacity=".1" d="M203.526 63.9146C203.526 72.9323 196.216 80.244 187.196 80.244C187.196 71.2263 194.508 63.9146 203.526 63.9146Z"/><path fill="#DADADA" d="M151.662 55.2982C151.662 40.4353 163.712 28.3876 178.576 28.3876C178.576 43.2487 166.527 55.2982 151.662 55.2982Z"/><path fill="#DADADA" d="M152.418 59.3791C166.448 59.3791 177.821 70.7507 177.821 84.7791C163.791 84.7791 152.418 73.4074 152.418 59.3791Z"/><path fill="#DADADA" d="M113.406 335.444C113.406 345.131 105.552 352.982 95.8657 352.982C95.8657 343.297 103.72 335.444 113.406 335.444Z"/><path fill="#000" fill-opacity=".1" d="M92.6913 362.506C105.885 362.506 116.582 373.202 116.582 386.394C103.387 386.394 92.6913 375.7 92.6913 362.506Z"/><path fill="#F0F0F0" d="M212.145 115.772C212.145 100.91 224.195 88.8602 239.059 88.8602C239.059 103.723 227.01 115.772 212.145 115.772Z"/><path fill="#DADADA" d="M236.188 394.106C236.188 405.794 226.709 415.271 215.019 415.271C215.019 403.581 224.496 394.106 236.188 394.106Z"/><path fill="#F0F0F0" d="M217.135 426.458C226.489 426.458 234.07 434.039 234.07 443.391C224.718 443.391 217.135 435.81 217.135 426.458Z"/><path fill="#DADADA" d="M53.9813 21.4316C43.1255 21.4316 34.3244 12.6322 34.3244 1.77817C45.1801 1.77817 53.9813 10.5776 53.9813 21.4316Z"/><path fill="#DADADA" d="M0.755201 28.6886C15.2871 28.6886 27.0654 40.467 27.0654 54.9954C12.5353 54.9954 0.755202 43.217 0.755201 28.6886Z"/><path fill="#DADADA" d="M117.186 271.19C117.186 285.051 105.949 296.287 92.0857 296.287C92.0857 282.426 103.324 271.19 117.186 271.19Z"/><path fill="#DADADA" d="M93.1437 242.012C105.838 242.012 116.128 252.301 116.128 264.993C103.434 264.993 93.1437 254.704 93.1437 242.012Z"/><path fill="#F0F0F0" d="M2.26259e-05 88.4078C15.3664 88.4078 27.8226 100.862 27.8226 116.225C12.4562 116.225 2.32975e-05 103.771 2.26259e-05 88.4078Z"/><path fill="#F0F0F0" d="M4.83804 81.1505C4.83804 71.131 12.9632 63.0077 22.9844 63.0077C22.9844 73.0272 14.8593 81.1505 4.83804 81.1505Z"/><path fill="#DADADA" d="M30.0902 116.377C30.0902 100.846 42.6819 88.2565 58.2156 88.2565C58.2156 103.787 45.6239 116.377 30.0902 116.377Z"/><path fill="#000" fill-opacity=".1" d="M213.052 54.3915C213.052 40.5304 224.29 29.2943 238.153 29.2943C238.153 43.1537 226.915 54.3915 213.052 54.3915Z"/><path fill="#DADADA" d="M217.438 3.44175C226.457 3.44175 233.767 10.7517 233.767 19.7695C224.749 19.7695 217.438 12.4577 217.438 3.44175Z"/></g></svg>